<svg xmlns="http://www.w3.org/2000/svg" viewBox="0 0 100 100" fill="none">
  <g stroke="#c8a27b" stroke-width="2.5" stroke-linecap="round" stroke-linejoin="round">
    <!-- Hanging string -->
    <line x1="50" y1="5" x2="50" y2="22"/>
    <!-- Ball circle -->
    <circle cx="50" cy="56" r="31"/>
    <!-- Horizontal grid lines (curved) -->
    <path d="M19 46 Q50 41 81 46"/>
    <path d="M19 56 Q50 51 81 56"/>
    <path d="M19 66 Q50 61 81 66"/>
    <path d="M22 76 Q50 71 78 76"/>
    <path d="M28 36 Q50 33 72 36"/>
    <!-- Vertical grid lines -->
    <line x1="50" y1="25" x2="50" y2="87"/>
    <path d="M36 26 Q33 56 36 86"/>
    <path d="M64 26 Q67 56 64 86"/>
    <path d="M25 33 Q19 56 25 79"/>
    <path d="M75 33 Q81 56 75 79"/>
    <!-- Light rays -->
    <line x1="13" y1="38" x2="7" y2="31"/>
    <line x1="7" y1="54" x2="1" y2="54"/>
    <line x1="13" y1="72" x2="7" y2="78"/>
    <line x1="87" y1="38" x2="93" y2="31"/>
    <line x1="93" y1="54" x2="99" y2="54"/>
    <line x1="87" y1="72" x2="93" y2="78"/>
    <line x1="32" y1="23" x2="27" y2="17"/>
    <line x1="68" y1="23" x2="73" y2="17"/>
  </g>
</svg>
