<svg xmlns="http://www.w3.org/2000/svg" viewBox="0 0 100 100" fill="none">
  <g stroke="#c8a27b" stroke-width="2.8" stroke-linecap="round" stroke-linejoin="round">
    <!-- Left flute -->
    <path d="M30 15 L24 46 Q26 58 33 60 L33 78"/>
    <path d="M44 15 L50 46 Q48 58 33 60"/>
    <line x1="30" y1="15" x2="44" y2="15"/>
    <line x1="24" y1="78" x2="42" y2="78"/>
    <!-- Right flute -->
    <path d="M56 15 L50 46 Q52 58 67 60 L67 78"/>
    <path d="M70 15 L76 46 Q74 58 67 60"/>
    <line x1="56" y1="15" x2="70" y2="15"/>
    <line x1="58" y1="78" x2="76" y2="78"/>
    <!-- Bubbles left -->
    <circle cx="36" cy="38" r="1.8" fill="#c8a27b"/>
    <circle cx="34" cy="28" r="1.2" fill="#c8a27b"/>
    <!-- Bubbles right -->
    <circle cx="64" cy="38" r="1.8" fill="#c8a27b"/>
    <circle cx="66" cy="28" r="1.2" fill="#c8a27b"/>
    <!-- Clink sparkle at top center -->
    <line x1="50" y1="10" x2="50" y2="6"/>
    <line x1="46" y1="12" x2="43" y2="9"/>
    <line x1="54" y1="12" x2="57" y2="9"/>
  </g>
</svg>
