<svg xmlns="http://www.w3.org/2000/svg" viewBox="0 0 100 100" fill="none" stroke="#c8a27b" stroke-width="2.2" stroke-linecap="round" stroke-linejoin="round">
  <!-- Hanging string -->
  <line x1="50" y1="5" x2="50" y2="18"/>
  <!-- Small hook/cap -->
  <path d="M46 18 L54 18"/>

  <!-- Main disco ball circle -->
  <circle cx="50" cy="50" r="28"/>

  <!-- Horizontal grid lines (clipped to circle) -->
  <path d="M22 38 Q50 34 78 38"/>
  <path d="M22 50 L78 50"/>
  <path d="M22 62 Q50 66 78 62"/>
  <path d="M28 74 Q50 79 72 74"/>
  <path d="M28 26 Q50 21 72 26"/>

  <!-- Vertical grid lines -->
  <path d="M50 22 L50 78"/>
  <path d="M38 22 Q34 50 38 78"/>
  <path d="M62 22 Q66 50 62 78"/>
  <path d="M29 28 Q24 50 29 72"/>
  <path d="M71 28 Q76 50 71 72"/>

  <!-- Light rays / sparkles around ball -->
  <line x1="14" y1="28" x2="19" y2="33"/>
  <line x1="10" y1="42" x2="17" y2="44"/>
  <line x1="11" y1="57" x2="18" y2="55"/>
  <line x1="17" y1="70" x2="22" y2="66"/>
  <line x1="86" y1="28" x2="81" y2="33"/>
  <line x1="90" y1="42" x2="83" y2="44"/>
  <line x1="89" y1="57" x2="82" y2="55"/>
  <line x1="83" y1="70" x2="78" y2="66"/>
  <line x1="34" y1="14" x2="36" y2="20"/>
  <line x1="50" y1="10" x2="50" y2="17"/>
  <line x1="66" y1="14" x2="64" y2="20"/>
</svg>
